<svg width="18" height="18" viewBox="0 0 18 18" fill="none" xmlns="http://www.w3.org/2000/svg">
<g id="Frame 1175">
<circle id="Ellipse 160" cx="9" cy="9" r="9" fill="#FCF3E2"/>
<g id="Group 5732">
<path id="Vector" d="M10.1922 9.35565H7.06526C6.82872 9.35565 6.63257 9.15949 6.63257 8.92296V6.42488C6.63257 6.18834 6.82872 5.99219 7.06526 5.99219H10.1922C11.0864 5.99219 11.8768 6.7768 11.8768 7.6768C11.8768 8.59988 11.121 9.35565 10.1922 9.35565ZM7.49795 8.49026H10.1922C10.6422 8.49026 11.0114 8.12103 11.0114 7.67103C11.0114 7.29026 10.6537 6.8518 10.1922 6.8518H7.49795V8.49026Z" fill="#F2C56C"/>
<path id="Vector_2" d="M10.6364 11.8537H7.06526C6.82872 11.8537 6.63257 11.6575 6.63257 11.421V8.92293C6.63257 8.68639 6.82872 8.49023 7.06526 8.49023H10.6364C11.6633 8.49023 12.4999 9.246 12.4999 10.1748C12.4999 11.1037 11.6633 11.8537 10.6364 11.8537ZM7.49795 10.9883H10.6364C11.1845 10.9883 11.6345 10.6191 11.6345 10.1691C11.6345 9.71908 11.1903 9.34985 10.6364 9.34985H7.49795V10.9883Z" fill="#F2C56C"/>
<path id="Vector_3" d="M9.25203 13.1056C9.01549 13.1056 8.81934 12.9094 8.81934 12.6729V11.421C8.81934 11.1844 9.01549 10.9883 9.25203 10.9883C9.48857 10.9883 9.68472 11.1844 9.68472 11.421V12.6729C9.68472 12.9094 9.49434 13.1056 9.25203 13.1056Z" fill="#F2C56C"/>
<path id="Vector_4" d="M7.69417 13.1056C7.45763 13.1056 7.26147 12.9094 7.26147 12.6729V11.421C7.26147 11.1844 7.45763 10.9883 7.69417 10.9883C7.93071 10.9883 8.12686 11.1844 8.12686 11.421V12.6729C8.12686 12.9094 7.93071 13.1056 7.69417 13.1056Z" fill="#F2C56C"/>
<path id="Vector_5" d="M9.25203 6.85754C9.01549 6.85754 8.81934 6.66139 8.81934 6.42485V5.17293C8.81934 4.93639 9.01549 4.74023 9.25203 4.74023C9.48857 4.74023 9.68472 4.93639 9.68472 5.17293V6.42485C9.68472 6.66139 9.49434 6.85754 9.25203 6.85754Z" fill="#F2C56C"/>
<path id="Vector_6" d="M7.69417 6.85754C7.45763 6.85754 7.26147 6.66139 7.26147 6.42485V5.17293C7.26147 4.93639 7.45763 4.74023 7.69417 4.74023C7.93071 4.74023 8.12686 4.93639 8.12686 5.17293V6.42485C8.12686 6.66139 7.93071 6.85754 7.69417 6.85754Z" fill="#F2C56C"/>
<path id="Vector_7" d="M8.25375 6.85757H6.06721C5.83068 6.85757 5.63452 6.66142 5.63452 6.42488C5.63452 6.18834 5.83068 5.99219 6.06721 5.99219H8.25375C8.49029 5.99219 8.68645 6.18834 8.68645 6.42488C8.68645 6.66142 8.49606 6.85757 8.25375 6.85757Z" fill="#F2C56C"/>
<path id="Vector_8" d="M8.25375 11.8537H6.06721C5.83068 11.8537 5.63452 11.6575 5.63452 11.421C5.63452 11.1844 5.83068 10.9883 6.06721 10.9883H8.25375C8.49029 10.9883 8.68645 11.1844 8.68645 11.421C8.68645 11.6575 8.49606 11.8537 8.25375 11.8537Z" fill="#F2C56C"/>
</g>
</g>
</svg>
