<svg width="39" height="39" viewBox="0 0 39 39" fill="none" xmlns="http://www.w3.org/2000/svg">
<g id="btc" clip-path="url(#clip0_4805_21681)">
<g id="Group">
<path id="Vector" d="M19.0987 38.1368C29.1115 38.1368 37.2286 30.0198 37.2286 20.0069C37.2286 9.99399 29.1115 1.87695 19.0987 1.87695C9.08579 1.87695 0.96875 9.99399 0.96875 20.0069C0.96875 30.0198 9.08579 38.1368 19.0987 38.1368Z" fill="white"/>
<path id="Vector_2" d="M27.2438 17.7634C27.5996 15.3884 25.79 14.1114 23.3175 13.2593L24.1197 10.0412L22.1617 9.55395L21.3799 12.687C20.8654 12.5579 20.3374 12.4377 19.8105 12.3176L20.598 9.16416L18.64 8.67578L17.8377 11.8927C17.4117 11.7953 16.9924 11.7001 16.5868 11.5981L16.589 11.5879L13.8877 10.9137L13.3664 13.0054C13.3664 13.0054 14.8202 13.3386 14.7896 13.359C15.5828 13.5573 15.7256 14.0819 15.7018 14.4989L14.7885 18.1645C14.8429 18.1781 14.9131 18.1985 14.9925 18.2291L14.7851 18.1781L13.5047 23.3134C13.4072 23.5536 13.1613 23.9151 12.6061 23.778C12.6265 23.8063 11.1829 23.4233 11.1829 23.4233L10.2107 25.6646L12.7602 26.3003C13.2339 26.4193 13.6984 26.544 14.1551 26.6607L13.3449 29.915L15.3018 30.4022L16.1041 27.1842C16.6389 27.3281 17.1579 27.4618 17.6655 27.5887L16.8655 30.7931L18.8235 31.2804L19.6337 28.0329C22.9742 28.6652 25.4852 28.4102 26.5424 25.3893C27.3945 22.9576 26.5004 21.5537 24.743 20.6393C26.0234 20.3447 26.9865 19.5027 27.2438 17.7634ZM22.7679 24.0386C22.164 26.4714 18.0677 25.1559 16.7397 24.8261L17.8162 20.5146C19.1442 20.8466 23.4013 21.5027 22.7679 24.0386ZM23.3741 17.7283C22.8223 19.9413 19.4139 18.8161 18.3091 18.5407L19.2836 14.6315C20.3884 14.9068 23.9498 15.4201 23.3741 17.7283Z" fill="#F7931A"/>
</g>
</g>
<defs>
<clipPath id="clip0_4805_21681">
<rect width="37.4685" height="38.6772" fill="white" transform="translate(0.987793 0.324219)"/>
</clipPath>
</defs>
</svg>
