<svg width="8" height="7" viewBox="0 0 8 7" fill="none" xmlns="http://www.w3.org/2000/svg">
<g id="Group 2">
<path id="Shape" d="M3.03759 2.93906V1.37285H0.91333V0H6.84936V1.39219H4.72509V2.93906H3.03759Z" fill="#00A478"/>
<path id="Shape_2" fill-rule="evenodd" clip-rule="evenodd" d="M0 3.11348C0 2.59141 1.70735 2.16602 3.83162 2.16602C5.95588 2.16602 7.66324 2.59141 7.66324 3.11348C7.66324 3.63555 5.95588 4.06094 3.83162 4.06094C1.70735 4.06094 0 3.63555 0 3.11348ZM7.34559 3.11348C7.20662 2.92012 6.05515 2.3207 3.83162 2.3207C1.60809 2.3207 0.456618 2.90078 0.317647 3.11348C0.456618 3.30684 1.60809 3.59687 3.83162 3.59687C6.075 3.59687 7.20662 3.30684 7.34559 3.11348Z" fill="#00A478"/>
<g id="Group">
<path id="Shape_3" d="M4.72502 3.42227V2.33945C4.44708 2.32012 4.14928 2.30078 3.85149 2.30078C3.57355 2.30078 3.31546 2.30078 3.05737 2.32012V3.40293C3.29561 3.40293 3.57355 3.42227 3.85149 3.42227C4.14928 3.4416 4.44708 3.4416 4.72502 3.42227Z" fill="#00A478"/>
<path id="Shape_4" d="M3.83172 4.06016C3.55377 4.06016 3.29569 4.06016 3.0376 4.04082V6.92188H4.70525V4.02148C4.4273 4.04082 4.12951 4.06016 3.83172 4.06016Z" fill="#00A478"/>
</g>
</g>
</svg>
