<svg id="add_card" xmlns="http://www.w3.org/2000/svg" xmlns:xlink="http://www.w3.org/1999/xlink" viewBox="0 0 160 140" shape-rendering="geometricPrecision" text-rendering="geometricPrecision" project-id="4c5f6bf67d6941578a4a035119b34481" export-id="52ed4c6c588d4653bb08d4bdfdd6f4b6" cached="false"><g id="add_card-u-group-1000002185" transform="translate(0 31.911003)"><circle id="add_card-u-ellipse-167" r="59.0445" transform="translate(59.0445 49.853095)" fill="#98bde3"/></g><g id="add_card-u-iconly-curved-two-tone-wallet" transform="translate(-.101356-23.6733)"><g id="add_card-u-wallet"><path id="add_card-u-stroke-7" d="M18.8857,81.3999c0-42.5481,16.1765-56.7266,64.7192-56.7266c48.5361,0,64.7121,14.1785,64.7121,56.7266c0,42.5421-16.176,56.7261-64.7121,56.7261-48.5427,0-64.7192-14.184-64.7192-56.7261Z" clip-rule="evenodd" fill="#dde9f6" fill-rule="evenodd"/><g id="add_card-u-stroke-5"><path id="add_card-s-path1" d="M52.9264,54.1004h28.2508-28.2508Z" clip-rule="evenodd" fill="#98bde3" fill-rule="evenodd"/><path id="add_card-s-path2" d="M52.9264,54.1004h28.2508" fill="none" stroke="#98bde3" stroke-width="10.4375" stroke-linecap="round" stroke-linejoin="round"/></g></g></g><g id="add_card-u-iconly-curved-two-tone-plus" transform="translate(84.46133 62.62793)"><g id="add_card-u-plus"><path id="add_card-u-stroke-3" d="M8.4823,37.8614c0-22.8654,7.9856-30.48933,31.9357-30.48933c23.95,0,31.9356,7.62393,31.9356,30.48933c0,22.8653-7.9856,30.4893-31.9356,30.4893-23.9501,0-31.9357-7.624-31.9357-30.4893Z" clip-rule="evenodd" fill="#1f1e2e" fill-rule="evenodd"/><path id="add_card-u-stroke-1" d="M40.4178,26.668v22.3841" fill="none" stroke="#fff" stroke-width="4.91982" stroke-linecap="round" stroke-linejoin="round"/><path id="add_card-u-stroke-2" d="M52.1532,37.861h-23.4701" fill="none" stroke="#fff" stroke-width="4.91982" stroke-linecap="round" stroke-linejoin="round"/></g></g></svg>
