<svg width="20" height="20" viewBox="0 0 20 20" fill="none" xmlns="http://www.w3.org/2000/svg">
<g id="Group 36989">
<path id="Fill 615" opacity="0.4" fill-rule="evenodd" clip-rule="evenodd" d="M10 0.25C2.801 0.25 0.25 2.801 0.25 10C0.25 17.198 2.801 19.75 10 19.75C17.199 19.75 19.75 17.198 19.75 10C19.75 2.801 17.199 0.25 10 0.25Z" fill="#5391D0"/>
<g id="Fill 656">
<path d="M12.2092 11.8994C12.2092 12.4524 12.6612 12.8994 13.2132 12.8994C13.7652 12.8994 14.2132 12.4524 14.2132 11.8994C14.2132 11.3464 13.7652 10.8994 13.2132 10.8994H13.2042C12.6522 10.8994 12.2092 11.3464 12.2092 11.8994Z" fill="#5391D0"/>
<path d="M9.2092 7.89941C9.2092 8.45241 9.6612 8.89941 10.2132 8.89941C10.7652 8.89941 11.2132 8.45241 11.2132 7.89941C11.2132 7.34641 10.7652 6.89941 10.2132 6.89941H10.2042C9.6522 6.89941 9.2092 7.34641 9.2092 7.89941Z" fill="#5391D0"/>
<path d="M6.2002 11.8994C6.2002 12.4524 6.6532 12.8994 7.2052 12.8994C7.7572 12.8994 8.2052 12.4524 8.2052 11.8994C8.2052 11.3464 7.7572 10.8994 7.2052 10.8994H7.1962C6.6442 10.8994 6.2002 11.3464 6.2002 11.8994Z" fill="#5391D0"/>
</g>
</g>
</svg>
