<svg width="22" height="22" viewBox="0 0 22 22" fill="none" xmlns="http://www.w3.org/2000/svg">
<g id="Iconly/Curved/Bold/Arrow - Up">
<path id="Fill 9" fill-rule="evenodd" clip-rule="evenodd" d="M17.2726 9.51557C16.7352 8.56171 13.9048 3.81161 10.9878 3.78983C10.9842 3.78983 10.9805 3.78809 10.9778 3.78809C10.9759 3.78809 10.975 3.78896 10.9741 3.78896C10.9714 3.78896 10.9696 3.78809 10.9677 3.78809C8.05254 3.78809 5.21126 8.5591 4.67201 9.51557C4.43296 9.93892 4.59811 10.4677 5.04246 10.695C5.18023 10.7673 5.32805 10.8004 5.47403 10.8004C5.79977 10.8004 6.11364 10.6341 6.27788 10.3422C7.15472 8.78994 8.76606 6.64791 10.0653 5.84998V17.7257C10.0653 18.2074 10.4732 18.5968 10.9778 18.5968C11.4814 18.5968 11.8902 18.2074 11.8902 17.7257V5.85346C13.1858 6.64616 14.7671 8.75074 15.6667 10.3422C15.9058 10.7656 16.4578 10.9224 16.903 10.695C17.3465 10.4677 17.5125 9.93892 17.2726 9.51557Z" fill="#E57C43"/>
</g>
</svg>
