<svg width="23" height="22" viewBox="0 0 23 22" fill="none" xmlns="http://www.w3.org/2000/svg">
<g id="Iconly/Curved/Bold/Arrow - Down">
<path id="Fill 21" fill-rule="evenodd" clip-rule="evenodd" d="M17.2573 11.689C16.813 11.459 16.2601 11.6193 16.0219 12.0418C15.1451 13.5941 13.5337 15.737 12.2344 16.5349V4.65919C12.2344 4.17747 11.8266 3.78809 11.322 3.78809C10.8174 3.78809 10.4096 4.17747 10.4096 4.65919V16.5305C9.11396 15.7378 7.53273 13.6333 6.63216 12.0418C6.39311 11.6193 5.84109 11.4607 5.39674 11.689C4.95331 11.9172 4.78724 12.4451 5.02721 12.8684C5.56463 13.8232 8.39405 18.5724 11.312 18.5942C11.3156 18.5942 11.3184 18.5968 11.322 18.5968C11.3229 18.5968 11.3248 18.5959 11.3257 18.5959C11.3275 18.5959 11.3293 18.5968 11.3321 18.5968C14.2472 18.5968 17.0876 13.8249 17.6269 12.8684C17.8668 12.4451 17.7008 11.9172 17.2573 11.689Z" fill="white"/>
</g>
</svg>
