<svg width="24" height="25" viewBox="0 0 24 25" fill="none" xmlns="http://www.w3.org/2000/svg">
<path fill-rule="evenodd" clip-rule="evenodd" d="M17.2289 17.4177C17.2289 17.8317 16.8929 18.1677 16.4789 18.1677C16.0649 18.1677 15.7289 17.8317 15.7289 17.4177V14.2607C15.7289 13.8467 16.0649 13.5107 16.4789 13.5107C16.8929 13.5107 17.2289 13.8467 17.2289 14.2607V17.4177ZM12.7499 17.4177C12.7499 17.8317 12.4139 18.1677 11.9999 18.1677C11.5859 18.1677 11.2499 17.8317 11.2499 17.4177V7.5197C11.2499 7.1047 11.5859 6.7697 11.9999 6.7697C12.4139 6.7697 12.7499 7.1047 12.7499 7.5197V17.4177ZM8.19594 17.4177C8.19594 17.8317 7.85994 18.1677 7.44594 18.1677C7.03194 18.1677 6.69594 17.8317 6.69594 17.4177V10.7237C6.69594 10.3097 7.03194 9.9737 7.44594 9.9737C7.85994 9.9737 8.19594 10.3097 8.19594 10.7237V17.4177ZM11.9999 2.2627C4.44094 2.2627 1.76294 4.9407 1.76294 12.4997C1.76294 20.0587 4.44094 22.7367 11.9999 22.7367C19.5579 22.7367 22.2369 20.0587 22.2369 12.4997C22.2369 4.9407 19.5579 2.2627 11.9999 2.2627Z" fill="#1F1E2E"/>
</svg>
