<svg width="44" height="22" viewBox="0 0 44 22" fill="none" xmlns="http://www.w3.org/2000/svg">
<g id="Group 5731">
<path id="Vector 5" d="M6.30309 15.8873L2.71898 19.4509C2.08622 20.08 2.53176 21.16 3.42405 21.16H42C42.5523 21.16 43 20.7123 43 20.16V3.49767C43 2.59527 41.8991 2.15449 41.2763 2.80755L40.6976 3.41444C40.5089 3.61234 40.2473 3.72432 39.9739 3.72432H39.1786C38.7461 3.72432 38.3626 4.00232 38.2282 4.41333L35.8248 11.7582C35.6213 12.3801 34.8852 12.6422 34.3344 12.2889L32.3382 11.0083C31.9811 10.7792 31.5184 10.8004 31.1837 11.0611L28.8703 12.8632C28.7654 12.9449 28.6778 13.0468 28.6127 13.1628L27.6642 14.8538C27.3285 15.4522 26.5038 15.5426 26.0465 15.0311L25.611 14.544C25.2785 14.172 24.7226 14.1021 24.3082 14.3802L23.8742 14.6715C23.3517 15.0221 22.6391 14.8089 22.3951 14.2289L21.567 12.2605L20.9396 11.1202C20.6098 10.5207 19.7889 10.4221 19.3264 10.9264L18.608 11.7099C18.3501 11.9912 17.8974 11.9585 17.6825 11.6431C17.4601 11.3165 16.9861 11.2955 16.7356 11.6012L15.3478 13.2946C15.0582 13.648 14.566 13.7601 14.1519 13.5671L13.7261 13.3687C13.261 13.1519 12.7074 13.3223 12.4447 13.7631L10.814 16.4992C10.5341 16.9688 9.92893 17.1266 9.45535 16.8534L7.50778 15.7302C7.11678 15.5046 6.62317 15.569 6.30309 15.8873Z" fill="url(#paint0_linear_4580_8774)" fill-opacity="0.5"/>
<path id="Vector 4" d="M1 21.16L6.30309 15.8873C6.62317 15.569 7.11678 15.5046 7.50778 15.7302L9.45535 16.8534C9.92893 17.1266 10.5341 16.9688 10.814 16.4992L12.4447 13.7631C12.7074 13.3223 13.261 13.1519 13.7261 13.3687L14.1519 13.5671C14.566 13.7601 15.0582 13.648 15.3478 13.2946L16.7356 11.6012C16.9861 11.2955 17.4601 11.3165 17.6825 11.6431V11.6431C17.8974 11.9585 18.3501 11.9912 18.608 11.7099L19.3264 10.9264C19.7889 10.4221 20.6098 10.5207 20.9396 11.1202L21.567 12.2605L22.3951 14.2289C22.6391 14.8089 23.3517 15.0221 23.8742 14.6715L24.3082 14.3802C24.7226 14.1021 25.2785 14.172 25.611 14.544L26.0465 15.0311C26.5038 15.5426 27.3285 15.4522 27.6642 14.8538L28.6127 13.1628C28.6778 13.0468 28.7654 12.9449 28.8703 12.8632L31.1837 11.0611C31.5184 10.8004 31.9811 10.7792 32.3382 11.0083L34.3344 12.2889C34.8852 12.6422 35.6213 12.3801 35.8248 11.7582L38.2282 4.41333C38.3626 4.00232 38.7461 3.72432 39.1786 3.72432H39.9739C40.2473 3.72432 40.5088 3.61234 40.6976 3.41445L43 1" stroke="#50E543"/>
</g>
<defs>
<linearGradient id="paint0_linear_4580_8774" x1="22" y1="-56.6" x2="22" y2="21.16" gradientUnits="userSpaceOnUse">
<stop stop-color="#50E543"/>
<stop offset="0.925" stop-color="#50E543" stop-opacity="0"/>
</linearGradient>
</defs>
</svg>
