<svg width="32" height="33" viewBox="0 0 32 33" fill="none" xmlns="http://www.w3.org/2000/svg">
<g id="Group 36985">
<path id="Fill 632" opacity="0.4" fill-rule="evenodd" clip-rule="evenodd" d="M15.9999 0.963867C4.53069 0.963867 0.464355 5.0302 0.464355 16.4994C0.464355 27.9687 4.53069 32.035 15.9999 32.035C27.4691 32.035 31.5355 27.9687 31.5355 16.4994C31.5355 5.0302 27.4691 0.963867 15.9999 0.963867Z" fill="#E57C43"/>
<g id="Fill 659">
<path d="M15.9934 12.1176H16.0077C16.6674 12.1176 17.1964 11.5822 17.1964 10.9226C17.1964 10.2629 16.653 9.72754 15.9934 9.72754C15.3337 9.72754 14.7983 10.2629 14.7983 10.9226C14.7983 11.5822 15.3337 12.1176 15.9934 12.1176Z" fill="#E57C43"/>
<path d="M15.9998 23.9008C16.6594 23.9008 17.1948 23.3654 17.1948 22.7057V16.4995C17.1948 15.8398 16.6594 15.3044 15.9998 15.3044C15.3401 15.3044 14.8047 15.8398 14.8047 16.4995V22.7057C14.8047 23.3654 15.3401 23.9008 15.9998 23.9008Z" fill="#E57C43"/>
</g>
</g>
</svg>
