<svg width="24" height="25" viewBox="0 0 24 25" fill="none" xmlns="http://www.w3.org/2000/svg">
<g id="Iconly/Curved/Bold/Home">
<path id="Fill 419" fill-rule="evenodd" clip-rule="evenodd" d="M14.9081 17.385H9.09306C8.67906 17.385 8.34306 17.049 8.34306 16.635C8.34306 16.221 8.67906 15.885 9.09306 15.885H14.9081C15.3221 15.885 15.6581 16.221 15.6581 16.635C15.6581 17.049 15.3221 17.385 14.9081 17.385ZM19.2491 6.658C18.8861 6.338 18.4731 5.976 17.9811 5.521C17.7581 5.341 17.5141 5.135 17.2551 4.917C15.7951 3.686 13.7951 2 11.9721 2C10.1701 2 8.29906 3.592 6.79606 4.871C6.51806 5.107 6.25806 5.329 5.99306 5.544C5.52706 5.976 5.11406 6.339 4.75006 6.66C2.36306 8.761 1.91406 9.312 1.91406 14.213C1.91406 23 4.45506 23 12.0001 23C19.5441 23 22.0861 23 22.0861 14.213C22.0861 9.311 21.6371 8.76 19.2491 6.658Z" fill="#1F1E2E"/>
</g>
</svg>
