<svg width="24" height="25" viewBox="0 0 24 25" fill="none" xmlns="http://www.w3.org/2000/svg">
<g id="Iconly/Curved/Bold/Document">
<path id="Fill 396" fill-rule="evenodd" clip-rule="evenodd" d="M15.5949 13.188H8.37489C7.96089 13.188 7.62489 12.852 7.62489 12.438C7.62489 12.024 7.96089 11.688 8.37489 11.688H15.5949C16.0089 11.688 16.3449 12.024 16.3449 12.438C16.3449 12.852 16.0089 13.188 15.5949 13.188ZM15.5949 16.947H8.37489C7.96089 16.947 7.62489 16.611 7.62489 16.197C7.62489 15.783 7.96089 15.447 8.37489 15.447H15.5949C16.0089 15.447 16.3449 15.783 16.3449 16.197C16.3449 16.611 16.0089 16.947 15.5949 16.947ZM8.37489 7.927H11.1299C11.5439 7.927 11.8799 8.263 11.8799 8.677C11.8799 9.091 11.5439 9.427 11.1299 9.427H8.37489C7.96089 9.427 7.62489 9.091 7.62489 8.677C7.62489 8.263 7.96089 7.927 8.37489 7.927ZM11.9999 2.75C5.43489 2.75 3.10889 5.302 3.10889 12.501C3.10889 19.699 5.43489 22.251 11.9999 22.251C18.5639 22.251 20.8909 19.699 20.8909 12.501C20.8909 5.302 18.5639 2.75 11.9999 2.75Z" fill="#1F1E2E"/>
</g>
</svg>
