<svg width="20" height="20" viewBox="0 0 20 20" fill="none" xmlns="http://www.w3.org/2000/svg">
<g id="Edit Square">
<path id="Stroke 1" d="M10.0002 0.75C3.0632 0.75 0.750198 3.063 0.750198 10C0.750198 16.937 3.0632 19.25 10.0002 19.25C16.9372 19.25 19.2502 16.937 19.2502 10" stroke="#E57C43" stroke-width="1.5" stroke-linecap="round" stroke-linejoin="round"/>
<path id="Stroke 3" fill-rule="evenodd" clip-rule="evenodd" d="M17.5285 2.30364V2.30364C16.5355 1.42464 15.0185 1.51664 14.1395 2.50964C14.1395 2.50964 9.7705 7.44464 8.2555 9.15764C6.7385 10.8696 7.8505 13.2346 7.8505 13.2346C7.8505 13.2346 10.3545 14.0276 11.8485 12.3396C13.3435 10.6516 17.7345 5.69264 17.7345 5.69264C18.6135 4.69964 18.5205 3.18264 17.5285 2.30364Z" stroke="#E57C43" stroke-width="1.5" stroke-linecap="round" stroke-linejoin="round"/>
<path id="Stroke 5" d="M13.009 3.80078L16.604 6.98378" stroke="#E57C43" stroke-width="1.5" stroke-linecap="round" stroke-linejoin="round"/>
</g>
</svg>
