<svg width="24" height="24" viewBox="0 0 24 24" fill="none" xmlns="http://www.w3.org/2000/svg">
<g id="Iconly/Curved/Bulk/Message">
<g id="Group 36997">
<path id="Fill 620" opacity="0.4" fill-rule="evenodd" clip-rule="evenodd" d="M12.0001 2.38379C4.59907 2.38379 1.97607 4.89979 1.97607 12.0008C1.97607 19.1008 4.59907 21.6178 12.0001 21.6178C19.4011 21.6178 22.0241 19.1008 22.0241 12.0008C22.0241 4.89979 19.4011 2.38379 12.0001 2.38379Z" fill="#B4A2F1"/>
<path id="Fill 676" d="M12.0113 13.6536C14.6343 13.6536 17.7933 9.9526 18.1453 9.5306C18.4103 9.2126 18.3673 8.7396 18.0493 8.4736C17.7313 8.2106 17.2583 8.2526 16.9933 8.5696C15.8373 9.9556 13.4623 12.1536 12.0113 12.1536C10.5593 12.1536 8.16234 9.9536 6.99134 8.5666C6.72434 8.2506 6.25134 8.2086 5.93534 8.4766C5.61834 8.7436 5.57834 9.2166 5.84434 9.5336C6.20034 9.9556 9.39134 13.6536 12.0113 13.6536Z" fill="#B4A2F1"/>
</g>
</g>
</svg>
