<svg width="20" height="18" viewBox="0 0 20 18" fill="none" xmlns="http://www.w3.org/2000/svg">
<g id="Hide">
<path id="Stroke 1" d="M4.42 14.7298C2.19 13.2698 0.75 11.0698 0.75 9.13984C0.75 5.85984 4.89 1.83984 10 1.83984C12.09 1.83984 14.03 2.50984 15.59 3.54984" stroke="#797882" stroke-width="1.5" stroke-linecap="round" stroke-linejoin="round"/>
<path id="Stroke 3" d="M17.8497 5.61035C18.7407 6.74035 19.2597 7.99035 19.2597 9.14035C19.2597 12.4204 15.1097 16.4404 9.99969 16.4404C9.08969 16.4404 8.20069 16.3104 7.36969 16.0804" stroke="#797882" stroke-width="1.5" stroke-linecap="round" stroke-linejoin="round"/>
<path id="Stroke 5" d="M7.76572 11.3667C7.17072 10.7777 6.83772 9.97469 6.84072 9.13769C6.83672 7.39269 8.24872 5.97469 9.99472 5.97169C10.8347 5.96969 11.6407 6.30269 12.2347 6.89669" stroke="black" stroke-width="1.5" stroke-linecap="round" stroke-linejoin="round"/>
<path id="Stroke 7" d="M13.1095 9.69922C12.8755 10.9912 11.8645 12.0042 10.5725 12.2412" stroke="black" stroke-width="1.5" stroke-linecap="round" stroke-linejoin="round"/>
<path id="Stroke 9" d="M17.8917 1.25L2.11768 17.024" stroke="black" stroke-width="1.5" stroke-linecap="round" stroke-linejoin="round"/>
</g>
</svg>
