<svg width="25" height="25" viewBox="0 0 25 25" fill="none" xmlns="http://www.w3.org/2000/svg">
<g id="Iconly/Curved/Light/Arrow - Left 3">
<g id="Hide">
<path id="Stroke 1" d="M6.72078 17.9798C4.49078 16.5198 3.05078 14.3198 3.05078 12.3898C3.05078 9.10984 7.19078 5.08984 12.3008 5.08984C14.3908 5.08984 16.3308 5.75984 17.8908 6.79984" stroke="#797882" stroke-width="1.5" stroke-linecap="round" stroke-linejoin="round"/>
<path id="Stroke 3" d="M20.1505 8.86035C21.0415 9.99035 21.5605 11.2404 21.5605 12.3904C21.5605 15.6704 17.4105 19.6904 12.3005 19.6904C11.3905 19.6904 10.5015 19.5604 9.67047 19.3304" stroke="#797882" stroke-width="1.5" stroke-linecap="round" stroke-linejoin="round"/>
<path id="Stroke 5" d="M10.0665 14.6167C9.47147 14.0277 9.13847 13.2247 9.14147 12.3877C9.13747 10.6427 10.5495 9.22469 12.2955 9.22169C13.1355 9.21969 13.9415 9.55269 14.5355 10.1467" stroke="white" stroke-width="1.5" stroke-linecap="round" stroke-linejoin="round"/>
<path id="Stroke 7" d="M15.4103 12.9492C15.1763 14.2412 14.1653 15.2542 12.8733 15.4912" stroke="white" stroke-width="1.5" stroke-linecap="round" stroke-linejoin="round"/>
<path id="Stroke 9" d="M20.1925 4.5L4.41849 20.274" stroke="white" stroke-width="1.5" stroke-linecap="round" stroke-linejoin="round"/>
</g>
</g>
</svg>
