<svg width="20" height="22" viewBox="0 0 20 22" fill="none" xmlns="http://www.w3.org/2000/svg">
<g id="Add User">
<path id="Stroke 1" fill-rule="evenodd" clip-rule="evenodd" d="M7.9223 20.8083C4.1083 20.8083 0.8503 20.2313 0.8503 17.9213C0.8503 15.6113 4.0873 13.5103 7.9223 13.5103C11.7363 13.5103 14.9943 15.5913 14.9943 17.9003C14.9943 20.2093 11.7573 20.8083 7.9223 20.8083Z" stroke="#5391D0" stroke-width="1.5" stroke-linecap="round" stroke-linejoin="round"/>
<path id="Stroke 3" fill-rule="evenodd" clip-rule="evenodd" d="M7.9223 10.2159C10.4253 10.2159 12.4553 8.1859 12.4553 5.6829C12.4553 3.1789 10.4253 1.1499 7.9223 1.1499C5.4193 1.1499 3.3893 3.1789 3.3893 5.6829C3.3803 8.1769 5.3963 10.2069 7.8903 10.2159H7.9223Z" stroke="#5391D0" stroke-width="1.5" stroke-linecap="round" stroke-linejoin="round"/>
<path id="Stroke 5" d="M17.1313 7.12891V11.1389" stroke="#5391D0" stroke-width="1.5" stroke-linecap="round" stroke-linejoin="round"/>
<path id="Stroke 7" d="M19.1776 9.13379H15.0876" stroke="#5391D0" stroke-width="1.5" stroke-linecap="round" stroke-linejoin="round"/>
</g>
</svg>
