<svg width="25" height="24" viewBox="0 0 25 24" fill="none" xmlns="http://www.w3.org/2000/svg">
<g id="Iconly/Curved/Outline/Link">
<path id="Vector" d="M13.9652 17.265L10.7028 20.5266C9.75557 21.4483 8.48349 21.96 7.16176 21.9512C5.84004 21.9423 4.57494 21.4136 3.64018 20.4793C2.70543 19.545 2.17618 18.2804 2.16695 16.959C2.15772 15.6376 2.66925 14.3657 3.59087 13.4185L6.85328 10.1538C7.04081 9.96622 7.14611 9.7118 7.14602 9.44656C7.14592 9.18132 7.04044 8.92699 6.85278 8.7395C6.66511 8.55202 6.41064 8.44674 6.14533 8.44683C5.88003 8.44693 5.62563 8.55238 5.4381 8.74L2.17669 12.0046C0.858794 13.3229 0.118672 15.1105 0.119141 16.9743C0.11961 18.8381 0.860631 20.6254 2.17919 21.943C3.49775 23.2605 5.28583 24.0005 7.15008 24C9.01433 23.9995 10.802 23.2587 12.1199 21.9405L15.3824 18.6788C15.5645 18.4903 15.6653 18.2377 15.6631 17.9755C15.6608 17.7134 15.5556 17.4626 15.3702 17.2772C15.1847 17.0918 14.9339 16.9866 14.6717 16.9844C14.4094 16.9821 14.1568 17.0829 13.9682 17.265H13.9652ZM22.0652 2.06078C21.4144 1.40567 20.64 0.886199 19.787 0.532458C18.9339 0.178717 18.0191 -0.00225619 17.0956 2.46379e-05C16.1725 -0.0024268 15.2581 0.178082 14.4053 0.531114C13.5525 0.884145 12.7781 1.4027 12.1269 2.05678L8.85953 5.3194C8.67186 5.50689 8.56638 5.76123 8.56629 6.02646C8.5662 6.2917 8.6715 6.54612 8.85903 6.73374C9.04656 6.92135 9.30096 7.02681 9.56627 7.0269C9.83157 7.027 10.086 6.92172 10.2737 6.73424L13.5391 3.47262C14.0047 3.00432 14.5586 2.63302 15.1688 2.3802C15.7789 2.12739 16.4331 1.99809 17.0936 1.99979C18.088 2.00012 19.0599 2.29519 19.8866 2.84769C20.7133 3.40019 21.3576 4.18533 21.738 5.10385C22.1184 6.02236 22.2179 7.03302 22.0239 8.00806C21.8299 8.9831 21.3511 9.87875 20.648 10.5818L17.3856 13.8434C17.1979 14.031 17.0925 14.2855 17.0925 14.5508C17.0925 14.8162 17.1979 15.0706 17.3856 15.2582C17.5733 15.4459 17.8278 15.5513 18.0932 15.5513C18.3586 15.5513 18.6131 15.4459 18.8008 15.2582L22.0632 11.9986C23.3794 10.6799 24.1188 8.89308 24.1191 7.03011C24.1195 5.16714 23.3809 3.38006 22.0652 2.06078Z" fill="#E57C43"/>
<path id="Vector_2" d="M14.4129 8.29142L8.41214 14.2907C8.31662 14.383 8.24042 14.4933 8.18801 14.6153C8.13559 14.7373 8.108 14.8685 8.10685 15.0012C8.1057 15.134 8.131 15.2657 8.18129 15.3885C8.23157 15.5114 8.30584 15.6231 8.39974 15.7169C8.49365 15.8108 8.60531 15.8851 8.72822 15.9353C8.85114 15.9856 8.98283 16.0109 9.11563 16.0098C9.24842 16.0086 9.37966 15.981 9.50168 15.9286C9.6237 15.8762 9.73406 15.8 9.82632 15.7045L15.8271 9.70525C16.0093 9.51667 16.1101 9.2641 16.1078 9.00194C16.1055 8.73977 16.0003 8.48899 15.8149 8.3036C15.6295 8.11821 15.3786 8.01306 15.1164 8.01078C14.8542 8.0085 14.6015 8.10928 14.4129 8.29142Z" fill="#E57C43"/>
</g>
</svg>
