<svg width="16" height="17" viewBox="0 0 16 17" fill="none" xmlns="http://www.w3.org/2000/svg">
<g id="Group 37006">
<path id="Vector" fill-rule="evenodd" clip-rule="evenodd" d="M14.7292 3.05437H11.2784C11.2442 2.50937 11.0934 1.74104 10.5509 1.1177C9.97754 0.458535 9.11921 0.123535 7.99921 0.123535C6.88004 0.123535 6.02171 0.458535 5.44837 1.1177C4.90587 1.74104 4.75421 2.50937 4.72004 3.05437H1.27087C0.925874 3.05437 0.645874 3.33437 0.645874 3.67937C0.645874 4.02437 0.925874 4.30437 1.27087 4.30437H14.7292C15.0742 4.30437 15.3542 4.02437 15.3542 3.67937C15.3542 3.33437 15.0742 3.05437 14.7292 3.05437Z" fill="#E54343"/>
<path id="Vector_2" opacity="0.4" fill-rule="evenodd" clip-rule="evenodd" d="M13.9156 6.2404C13.9156 6.0104 13.7289 5.82373 13.4989 5.82373H2.50225C2.27142 5.82373 2.08558 6.0104 2.08558 6.2404C2.08558 7.07123 2.07058 7.8454 2.05642 8.5629C1.99475 11.6871 1.95392 13.7512 3.21642 15.0387C4.11308 15.9529 5.58558 16.3612 7.99142 16.3612C10.3997 16.3612 11.8747 15.9521 12.7739 15.0362C14.0422 13.7429 14.0022 11.6687 13.9431 8.52706C13.9297 7.81956 13.9156 7.05706 13.9156 6.2404Z" fill="#E54343"/>
</g>
</svg>
