<svg width="24" height="25" viewBox="0 0 24 25" fill="none" xmlns="http://www.w3.org/2000/svg">
<g id="plus">
<path id="Vector" d="M19 11.1602H13V5.16016C13 4.89494 12.8946 4.64059 12.7071 4.45305C12.5196 4.26551 12.2652 4.16016 12 4.16016C11.7348 4.16016 11.4804 4.26551 11.2929 4.45305C11.1054 4.64059 11 4.89494 11 5.16016V11.1602H5C4.73478 11.1602 4.48043 11.2655 4.29289 11.453C4.10536 11.6406 4 11.8949 4 12.1602C4 12.4254 4.10536 12.6797 4.29289 12.8673C4.48043 13.0548 4.73478 13.1602 5 13.1602H11V19.1602C11 19.4254 11.1054 19.6797 11.2929 19.8673C11.4804 20.0548 11.7348 20.1602 12 20.1602C12.2652 20.1602 12.5196 20.0548 12.7071 19.8673C12.8946 19.6797 13 19.4254 13 19.1602V13.1602H19C19.2652 13.1602 19.5196 13.0548 19.7071 12.8673C19.8946 12.6797 20 12.4254 20 12.1602C20 11.8949 19.8946 11.6406 19.7071 11.453C19.5196 11.2655 19.2652 11.1602 19 11.1602Z" fill="black"/>
</g>
</svg>
