<svg width="32" height="32" viewBox="0 0 32 32" fill="none" xmlns="http://www.w3.org/2000/svg">
<g id="Logo/telegram">
<circle id="Ellipse 1" cx="16" cy="16" r="16" fill="#F7F6FE"/>
<g id="Group 1000002195">
<g id="iconmonstr-telegram-1 1" clip-path="url(#clip0_3441_4234)">
<path id="telegram-1" fill-rule="evenodd" clip-rule="evenodd" d="M19.9441 23.1179C20.1766 23.2826 20.4763 23.3238 20.7436 23.2227C21.0108 23.1208 21.2072 22.8926 21.2665 22.616C21.8941 19.6664 23.4165 12.2008 23.9878 9.51778C24.0311 9.31556 23.9589 9.10539 23.8 8.97034C23.6411 8.83528 23.4208 8.79628 23.2244 8.86923C20.1961 9.99011 10.8701 13.4893 7.05817 14.8998C6.81623 14.9893 6.65879 15.2219 6.66673 15.4768C6.6754 15.7325 6.84729 15.9542 7.09501 16.0286C8.80451 16.5399 11.0485 17.2513 11.0485 17.2513C11.0485 17.2513 12.0971 20.4183 12.6438 22.0288C12.7125 22.2311 12.8706 22.3899 13.0793 22.4448C13.2873 22.499 13.5098 22.4419 13.6651 22.2953C14.5433 21.4662 15.9011 20.1843 15.9011 20.1843C15.9011 20.1843 18.4808 22.0758 19.9441 23.1179ZM11.9924 16.8512L13.205 20.8509L13.4744 18.3181C13.4744 18.3181 18.1595 14.0923 20.8302 11.6837C20.9082 11.6129 20.9191 11.4945 20.8541 11.4114C20.7898 11.3284 20.6713 11.3089 20.5825 11.3652C17.4871 13.3419 11.9924 16.8512 11.9924 16.8512Z" fill="#B4A2F1"/>
</g>
</g>
</g>
<defs>
<clipPath id="clip0_3441_4234">
<rect width="17.3333" height="17.3333" fill="white" transform="translate(6.66687 6.66699)"/>
</clipPath>
</defs>
</svg>
