<svg width="25" height="20" viewBox="0 0 25 20" fill="none" xmlns="http://www.w3.org/2000/svg">
<g id="Iconly/Curved/Light/Arrow - Left 3">
<g id="Star">
<path id="Stroke 1" fill-rule="evenodd" clip-rule="evenodd" d="M12.5 2.4248C10.4638 2.4248 10.2713 5.29158 9.05911 6.30446C7.84689 7.31734 4.0782 6.15924 3.55459 7.95706C3.03207 9.7558 6.42235 10.3661 6.84036 11.9093C7.26057 13.4525 5.18922 15.6208 6.95916 16.6998C8.72911 17.778 10.6343 15.3377 12.5 15.3377C14.3656 15.3377 16.2709 17.778 18.0408 16.6998C19.8108 15.6208 17.7405 13.4525 18.1596 11.9093C18.5787 10.3661 21.9679 9.7558 21.4454 7.95706C20.9229 6.15924 17.1531 7.31734 15.942 6.30446C14.7297 5.29158 14.5361 2.4248 12.5 2.4248Z" stroke="#E57C43" stroke-width="1.5" stroke-linecap="round" stroke-linejoin="round"/>
</g>
</g>
</svg>
