<svg width="13" height="14" viewBox="0 0 13 14" fill="none" xmlns="http://www.w3.org/2000/svg">
<g id="Iconly/Curved/Bold/Star">
<path id="Fill 141" fill-rule="evenodd" clip-rule="evenodd" d="M11.6458 5.35094C11.4418 4.44564 10.5363 4.39889 9.8084 4.36094C9.35037 4.33674 8.87652 4.31254 8.67834 4.0986C8.47647 3.8808 8.31887 3.46335 8.16549 3.05965C7.86663 2.26985 7.52772 1.375 6.67437 1.375C5.82155 1.375 5.48317 2.26985 5.18378 3.05965C5.03093 3.46335 4.8728 3.8808 4.67146 4.0986C4.47275 4.31254 3.9989 4.33674 3.54087 4.36094C2.81297 4.39889 1.90744 4.44564 1.70346 5.35094C1.51002 6.21004 2.11458 6.72979 2.64799 7.18849C3.01273 7.50199 3.35744 7.79899 3.43387 8.16199C3.50819 8.51454 3.39645 8.96994 3.28839 9.41104C3.10286 10.1695 2.89203 11.0286 3.59568 11.5824C3.81548 11.7557 4.03843 11.8244 4.25875 11.8244C4.73576 11.8244 5.20065 11.5032 5.5986 11.2282C5.96703 10.9741 6.34811 10.7107 6.67437 10.7107C7.00063 10.7107 7.38224 10.9741 7.75015 11.2282C8.33257 11.6303 9.05678 12.1297 9.75411 11.5824C10.4578 11.0286 10.2469 10.1689 10.0609 9.40994C9.95282 8.96939 9.84161 8.51399 9.9154 8.16199C9.99183 7.79899 10.3365 7.50254 10.7013 7.18849C11.2347 6.72979 11.8393 6.21004 11.6458 5.35094Z" fill="#E57C43"/>
</g>
</svg>
