<svg width="13" height="14" viewBox="0 0 13 14" fill="none" xmlns="http://www.w3.org/2000/svg">
<g id="Iconly/Curved/Bold/Star">
<path id="Fill 141" fill-rule="evenodd" clip-rule="evenodd" d="M11.3084 5.35094C11.1044 4.44564 10.1989 4.39889 9.47099 4.36094C9.01296 4.33674 8.53911 4.31254 8.34093 4.0986C8.13906 3.8808 7.98146 3.46335 7.82808 3.05965C7.52922 2.26985 7.19031 1.375 6.33696 1.375C5.48414 1.375 5.14576 2.26985 4.84637 3.05965C4.69352 3.46335 4.53539 3.8808 4.33405 4.0986C4.13534 4.31254 3.66149 4.33674 3.20346 4.36094C2.47556 4.39889 1.57003 4.44564 1.36605 5.35094C1.17261 6.21004 1.77717 6.72979 2.31058 7.18849C2.67532 7.50199 3.02003 7.79899 3.09646 8.16199C3.17078 8.51454 3.05904 8.96994 2.95098 9.41104C2.76545 10.1695 2.55462 11.0286 3.25827 11.5824C3.47807 11.7557 3.70102 11.8244 3.92134 11.8244C4.39835 11.8244 4.86324 11.5032 5.26119 11.2282C5.62962 10.9741 6.0107 10.7107 6.33696 10.7107C6.66322 10.7107 7.04483 10.9741 7.41274 11.2282C7.99516 11.6303 8.71937 12.1297 9.4167 11.5824C10.1204 11.0286 9.90952 10.1689 9.72346 9.40994C9.61541 8.96939 9.5042 8.51399 9.57799 8.16199C9.65442 7.79899 9.99913 7.50254 10.3639 7.18849C10.8973 6.72979 11.5018 6.21004 11.3084 5.35094Z" fill="#D2D2D5"/>
</g>
</svg>
