<svg width="24" height="25" viewBox="0 0 24 25" fill="none" xmlns="http://www.w3.org/2000/svg">
<g id="Iconly/Curved/Bold/Wallet">
<g id="Vector">
<path fill-rule="evenodd" clip-rule="evenodd" d="M18.1605 12.3C18.1605 12.714 17.8245 13.05 17.4105 13.05C16.9965 13.05 16.6605 12.714 16.6605 12.3C16.6605 11.886 16.9965 11.55 17.4105 11.55C17.8245 11.55 18.1605 11.886 18.1605 12.3ZM15.4575 12.36C15.4575 13.359 16.2715 14.172 17.2705 14.172H21.7305C21.7725 13.644 21.8005 13.095 21.8005 12.5C21.8005 11.798 21.7655 11.155 21.7065 10.546H17.2705C16.2715 10.546 15.4575 11.36 15.4575 12.36Z" fill="#1F1E2E"/>
<path fill-rule="evenodd" clip-rule="evenodd" d="M11.6517 9.14094H7.59171C7.17771 9.14094 6.84171 8.80494 6.84171 8.39094C6.84171 7.97694 7.17771 7.64094 7.59171 7.64094H11.6517C12.0657 7.64094 12.4017 7.97694 12.4017 8.39094C12.4017 8.80494 12.0657 9.14094 11.6517 9.14094ZM17.2707 15.6719C15.4437 15.6719 13.9577 14.1859 13.9577 12.3599C13.9577 10.5329 15.4437 9.04594 17.2707 9.04594H21.4807C20.6027 4.99194 17.8097 3.46094 12.0007 3.46094C4.76471 3.46094 2.19971 5.82694 2.19971 12.4999C2.19971 19.1739 4.76471 21.5389 12.0007 21.5389C17.9427 21.5389 20.7307 19.9389 21.5387 15.6719H17.2707Z" fill="#1F1E2E"/>
</g>
</g>
</svg>
