<svg width="20" height="22" viewBox="0 0 20 22" fill="none" xmlns="http://www.w3.org/2000/svg">
<g id="Work">
<g id="Group 37060" opacity="0.4">
<path id="Stroke 1" d="M9.96114 15.5167V12.8887" stroke="#5391D0" stroke-width="1.5" stroke-linecap="round" stroke-linejoin="round"/>
<path id="Stroke 2" d="M19.0895 10.4775L19.0605 10.4985C16.6385 11.9905 13.4405 12.8915 9.95647 12.8915C6.47247 12.8915 3.28347 11.9905 0.862474 10.4985L0.832474 10.4775" stroke="#5391D0" stroke-width="1.5" stroke-linecap="round" stroke-linejoin="round"/>
</g>
<path id="Stroke 4" fill-rule="evenodd" clip-rule="evenodd" d="M0.750198 12.3505C0.750198 6.19846 3.0532 4.14746 9.9612 4.14746C16.8702 4.14746 19.1722 6.19846 19.1722 12.3505C19.1722 18.5025 16.8702 20.5535 9.9612 20.5535C3.0532 20.5535 0.750198 18.5025 0.750198 12.3505Z" stroke="#5391D0" stroke-width="1.5" stroke-linecap="round" stroke-linejoin="round"/>
<path id="Stroke 6" opacity="0.4" d="M13.2238 4.3692V3.7392C13.2238 2.4752 12.3008 1.4502 11.1638 1.4502H8.75879C7.62179 1.4502 6.69879 2.4752 6.69879 3.7392V4.3692" stroke="#5391D0" stroke-width="1.5" stroke-linecap="round" stroke-linejoin="round"/>
</g>
</svg>
